<?xml version="1.0" encoding="utf-8"?>
<!-- Svg Vector Icons : http://www.onlinewebfonts.com/icon -->
<!DOCTYPE svg PUBLIC "-//W3C//DTD SVG 1.1//EN" "http://www.w3.org/Graphics/SVG/1.1/DTD/svg11.dtd">
<svg version="1.1" xmlns="http://www.w3.org/2000/svg" xmlns:xlink="http://www.w3.org/1999/xlink" x="0px" y="0px" viewBox="0 0 256 256" enable-background="new 0 0 256 256" xml:space="preserve">
<metadata> Svg Vector Icons : http://www.onlinewebfonts.com/icon </metadata>
<g><g><path fill="#000000" d="M110.1,170c-5.5,0-10.3-4.7-10.3-10.3c0-1.6,1.6-3.2,3.2-3.2h19.6c-0.1-1.5-0.2-3.1-0.2-4.6c0-24.2,13.9-45.2,34.2-55.3H61.3c4.7-9.5,11.8-19.7,20.5-30c3.2-3.9,7.1-5.5,11.8-5.5H163c4.7,0,8.7,2.4,11.8,5.5c6.9,8.1,12.2,16.2,16.9,23.9c17.5,2.1,32.8,11.6,42.7,25.2l6.6-0.3c2.4,0,4.7-2.4,4.7-4.7V98.2c0.8-2.4-1.6-4.7-3.9-4.7h-17.3c-1.6,0-2.4,0.8-3.2,1.6l-4.7,3.2c-6.3-14.2-15-28.4-27.6-43.4c-6.3-7.9-16.6-12.6-26.8-12.6H92.8c-10.3,0-19.7,4.7-26.8,12.6C54.2,69.8,45.5,84,40,98.2l-4-3.1c-0.8-0.8-2.4-1.6-3.2-1.6H14.7c-2.4,0-4.7,2.4-4.7,4.7v11.8c0,2.4,2.4,4.7,4.7,4.7l18.1,0.8c-2.4,7.9-4.7,19.7-4.7,36.3c0,14.2,3.2,23.7,7.9,30v27.6c0,2.4,1.6,4,3.9,4h19.7c2.4,0,3.9-1.6,3.9-4v-16.6h74.3c-5.8-6.6-10.2-14.3-12.8-22.9H110.1z M66.8,172.3c-9.5,0-17.3-3.9-17.3-11c0-7.9,3.2-14.2,12.6-14.2c9.5,0,22.9,6.3,22.9,14.2C84.9,168.4,77,172.3,66.8,172.3z"/><path fill="#000000" d="M234.4,115.9c-9.8-13.6-25.1-23.1-42.7-25.2c-2.5-0.3-5-0.5-7.5-0.5c-9.9,0-19.2,2.3-27.5,6.5c-20.3,10.1-34.2,31.1-34.2,55.3c0,1.5,0,3.1,0.2,4.6c0.3,4.6,1.2,9.1,2.5,13.4c2.6,8.5,7,16.3,12.8,22.9c11.3,12.8,27.9,20.9,46.3,20.9c34.1,0,61.8-27.7,61.8-61.8C246,138.5,241.7,126,234.4,115.9z M184.2,206.5c-30.1,0-54.5-24.4-54.5-54.5c0-30.1,24.4-54.5,54.5-54.5c30.1,0,54.5,24.4,54.5,54.5C238.8,182.1,214.4,206.5,184.2,206.5z"/><path fill="#000000" d="M191.5,144.7v-34.5H177v34.5h-34.5v14.5H177v34.5h14.5v-34.6H226v-14.5H191.5z"/></g></g>
</svg>