<svg width="61" height="61" viewBox="0 0 61 61" fill="none" xmlns="http://www.w3.org/2000/svg">
<path d="M18.79 43.39C18.79 42.8566 18.99 42.39 19.39 41.99C19.79 41.59 20.19 41.39 20.59 41.39H41.39C41.79 41.39 42.19 41.59 42.59 41.99C42.99 42.39 43.19 42.8566 43.19 43.39C43.19 43.9233 42.99 44.3566 42.59 44.69C42.19 45.0233 41.79 45.19 41.39 45.19H20.59C20.19 45.19 19.79 45.0233 19.39 44.69C18.99 44.3566 18.79 43.9233 18.79 43.39ZM38.99 4.78995C36.7233 2.92329 34.0566 1.98995 30.99 1.98995C27.9233 1.98995 25.2566 2.92329 22.99 4.78995L7.98998 16.39C6.38998 17.7233 5.12331 19.2566 4.18998 20.99C3.25664 22.7233 2.78998 24.59 2.78998 26.59V45.39C2.78998 47.6566 3.38998 49.79 4.58998 51.79C5.78998 53.79 7.38998 55.39 9.38998 56.59C11.39 57.79 13.59 58.39 15.99 58.39H45.99C48.39 58.39 50.59 57.79 52.59 56.59C54.59 55.39 56.19 53.79 57.39 51.79C58.59 49.79 59.19 47.6566 59.19 45.39V26.59C59.19 24.59 58.7233 22.7233 57.79 20.99C56.8566 19.2566 55.59 17.7233 53.99 16.39L38.99 4.78995ZM25.19 7.78995C26.9233 6.45662 28.8566 5.78995 30.99 5.78995C33.1233 5.78995 35.0566 6.45662 36.79 7.78995L51.79 19.39C52.8566 20.3233 53.7233 21.4233 54.39 22.69C55.0566 23.9566 55.39 25.2566 55.39 26.59V45.39C55.39 47.9233 54.4566 50.09 52.59 51.89C50.7233 53.69 48.5233 54.59 45.99 54.59H15.99C13.4566 54.59 11.2566 53.69 9.38998 51.89C7.52331 50.09 6.58998 47.9233 6.58998 45.39V26.59C6.58998 25.2566 6.92331 23.9566 7.58998 22.69C8.25664 21.4233 9.12331 20.3233 10.19 19.39L25.19 7.78995Z" fill="#1A1A1A"/>
</svg>
