<svg width="61" height="61" viewBox="0 0 61 61" fill="none" xmlns="http://www.w3.org/2000/svg">
<path d="M30.32 56.59C29.52 56.59 28.7867 56.39 28.12 55.99L19.32 50.79C15.5867 48.6566 12.5533 45.7233 10.22 41.99C7.88667 38.2566 6.52 34.2566 6.12 29.99L4.92 14.99C4.78667 13.9233 4.98667 12.9566 5.52 12.09C6.05334 11.2233 6.78667 10.6566 7.72 10.39C9.18667 9.98996 10.52 9.38997 11.72 8.58997C13.1867 7.65663 14.52 6.45663 15.72 4.98996C16.52 3.9233 17.6533 3.38997 19.12 3.38997H41.52C42.9867 3.38997 44.12 3.9233 44.92 4.98996C46.12 6.45663 47.4533 7.65663 48.92 8.58997C50.12 9.38997 51.4533 9.98996 52.92 10.39C53.8533 10.6566 54.5867 11.2233 55.12 12.09C55.6533 12.9566 55.92 13.8566 55.92 14.79L54.52 29.79C54.2533 34.19 52.9533 38.2233 50.62 41.89C48.2867 45.5566 45.2533 48.5233 41.52 50.79L32.72 55.99C31.92 56.39 31.12 56.59 30.32 56.59ZM19.12 6.98996C18.8533 6.98996 18.6533 7.05663 18.52 7.18996C17.1867 8.9233 15.6533 10.4566 13.92 11.79C12.4533 12.7233 10.8533 13.39 9.12001 13.79C8.72001 13.9233 8.52 14.19 8.52 14.59L9.92001 29.59C10.1867 33.3233 11.32 36.79 13.32 39.99C15.32 43.19 17.92 45.7233 21.12 47.59L29.92 52.79C30.1867 52.9233 30.4533 52.9233 30.72 52.79L39.52 47.59C42.72 45.7233 45.32 43.2233 47.32 40.09C49.32 36.9566 50.4533 33.4566 50.72 29.59L52.12 14.59C52.12 14.3233 51.92 14.1233 51.52 13.99C49.7867 13.59 48.1867 12.8566 46.72 11.79C44.9867 10.59 43.4533 9.1233 42.12 7.38997C41.9867 7.25663 41.7867 7.18996 41.52 7.18996L19.12 6.98996ZM28.52 35.79C27.9867 35.79 27.52 35.59 27.12 35.19L22.12 30.19C21.8533 29.9233 21.7533 29.5566 21.82 29.09C21.8867 28.6233 22.0867 28.2233 22.42 27.89C22.7533 27.5566 23.12 27.3566 23.52 27.29C23.92 27.2233 24.32 27.3233 24.72 27.59L28.52 31.39L37.12 22.59C37.52 22.4566 37.92 22.39 38.32 22.39C38.72 22.39 39.0867 22.5566 39.42 22.89C39.7533 23.2233 39.9533 23.59 40.02 23.99C40.0867 24.39 39.9867 24.79 39.72 25.19L29.72 35.19C29.4533 35.59 29.0533 35.79 28.52 35.79Z" fill="#1A1A1A"/>
</svg>
