<svg width="21" height="21" viewBox="0 0 21 21" fill="none" xmlns="http://www.w3.org/2000/svg">
<g clip-path="url(#clip0_2035_176)">
<path d="M16.8498 2.56333C16.0054 1.76333 15.0609 1.14111 14.0165 0.696664C12.972 0.25222 11.872 0.0299977 10.7165 0.0299977C9.56092 0.0299977 8.44981 0.25222 7.38314 0.696664C6.31647 1.14111 5.38314 1.76333 4.58314 2.56333C3.78314 3.36333 3.16092 4.29666 2.71647 5.36333C2.27203 6.43 2.0498 7.54111 2.0498 8.69666C2.0498 9.85222 2.27203 10.9522 2.71647 11.9967C3.16092 13.0411 3.78314 13.9856 4.58314 14.83L9.18314 19.43C9.58314 19.83 10.0831 20.03 10.6831 20.03C11.2831 20.03 11.8054 19.83 12.2498 19.43L16.8498 14.83C17.6498 13.9856 18.272 13.0411 18.7165 11.9967C19.1609 10.9522 19.3831 9.85222 19.3831 8.69666C19.3831 7.54111 19.1609 6.43 18.7165 5.36333C18.272 4.29666 17.6498 3.36333 16.8498 2.56333ZM15.9831 13.9633L11.3831 18.5633C11.2054 18.7411 10.9831 18.83 10.7165 18.83C10.4498 18.83 10.2054 18.7411 9.98314 18.5633L5.38314 13.9633C4.67203 13.2522 4.13869 12.4411 3.78314 11.53C3.42758 10.6189 3.2498 9.66333 3.2498 8.66333C3.2498 7.66333 3.42758 6.70778 3.78314 5.79666C4.13869 4.88555 4.67203 4.08555 5.38314 3.39666C6.09425 2.70778 6.90536 2.17444 7.81647 1.79666C8.72758 1.41889 9.68314 1.23 10.6831 1.23C11.6831 1.23 12.6387 1.41889 13.5498 1.79666C14.4609 2.17444 15.272 2.69666 15.9831 3.36333C16.9609 4.34111 17.6165 5.47444 17.9498 6.76333C18.2831 8.05222 18.2831 9.34111 17.9498 10.63C17.6165 11.9189 16.9609 13.03 15.9831 13.9633ZM10.7165 5.56333C9.87203 5.56333 9.13869 5.87444 8.51647 6.49666C7.89425 7.11889 7.58314 7.85222 7.58314 8.69666C7.58314 9.54111 7.89425 10.2633 8.51647 10.8633C9.13869 11.4633 9.87203 11.7633 10.7165 11.7633C11.5609 11.7633 12.2831 11.4633 12.8831 10.8633C13.4831 10.2633 13.7831 9.54111 13.7831 8.69666C13.7831 7.85222 13.4831 7.11889 12.8831 6.49666C12.2831 5.87444 11.5609 5.56333 10.7165 5.56333ZM10.7165 10.63C10.1831 10.63 9.72758 10.4411 9.34981 10.0633C8.97203 9.68555 8.78314 9.23 8.78314 8.69666C8.78314 8.16333 8.97203 7.70778 9.34981 7.33C9.72758 6.95222 10.1831 6.76333 10.7165 6.76333C11.2498 6.76333 11.7054 6.95222 12.0831 7.33C12.4609 7.70778 12.6498 8.16333 12.6498 8.69666C12.6498 9.23 12.4609 9.68555 12.0831 10.0633C11.7054 10.4411 11.2498 10.63 10.7165 10.63Z" fill="#1A1A1A"/>
</g>
<defs>
<clipPath id="clip0_2035_176">
<rect width="20" height="20" fill="white" transform="matrix(1 0 0 -1 0.716553 20.03)"/>
</clipPath>
</defs>
</svg>
